<?xml version="1.0" encoding="UTF-8" standalone="no"?>
<svg
   xmlns:dc="http://purl.org/dc/elements/1.1/"
   xmlns:cc="http://creativecommons.org/ns#"
   xmlns:rdf="http://www.w3.org/1999/02/22-rdf-syntax-ns#"
   xmlns:svg="http://www.w3.org/2000/svg"
   xmlns="http://www.w3.org/2000/svg"
   xmlns:sodipodi="http://sodipodi.sourceforge.net/DTD/sodipodi-0.dtd"
   xmlns:inkscape="http://www.inkscape.org/namespaces/inkscape"
   inkscape:export-ydpi="96.155357"
   inkscape:export-xdpi="96.155357"
   inkscape:export-filename="/home/ahmad/MEGA/TEMP/Havenir/Logos/moving-square.png"
   inkscape:version="1.0 (5b275a35d9, 2020-05-03)"
   sodipodi:docname="moving-square.svg"
   id="svg8"
   version="1.1"
   viewBox="0 0 108.1681 105.4623"
   height="398.59769"
   width="408.82431">
  <defs
     id="defs2" />
  <sodipodi:namedview
     inkscape:document-rotation="0"
     fit-margin-bottom="75"
     fit-margin-right="10"
     fit-margin-left="10"
     fit-margin-top="75"
     units="px"
     inkscape:window-maximized="1"
     inkscape:window-y="27"
     inkscape:window-x="0"
     inkscape:window-height="1016"
     inkscape:window-width="1920"
     inkscape:snap-smooth-nodes="true"
     inkscape:object-nodes="true"
     showborder="true"
     showgrid="false"
     inkscape:current-layer="layer1"
     inkscape:document-units="px"
     inkscape:cy="237.43992"
     inkscape:cx="299.78778"
     inkscape:zoom="1.4142136"
     inkscape:pageshadow="2"
     inkscape:pageopacity="0.0"
     borderopacity="1.0"
     bordercolor="#666666"
     pagecolor="#ffffff"
     id="base" />
  <metadata
     id="metadata5">
    <rdf:RDF>
      <cc:Work
         rdf:about="">
        <dc:format>image/svg+xml</dc:format>
        <dc:type
           rdf:resource="http://purl.org/dc/dcmitype/StillImage" />
        <dc:title></dc:title>
      </cc:Work>
    </rdf:RDF>
  </metadata>
  <g
     transform="translate(-49.578718,-84.50223)"
     id="layer1"
     inkscape:groupmode="layer"
     inkscape:label="Layer 1">
    <path
       inkscape:connector-curvature="0"
       id="path4526"
       d="m 80.813695,108.87102 c -2.352571,0.15102 -4.124996,2.1666 -3.973977,4.51918 0.15102,2.35256 2.16661,4.125 4.519181,3.97397 l 0.462222,-0.0297 16.248742,-1.04307 c 0.162309,-0.0104 0.321587,-0.0308 0.477932,-0.0585 l 0.0036,0.055 c 2.140215,0.10048 3.897105,1.78691 4.037705,3.97718 0.1406,2.19026 -1.38624,4.08764 -3.496031,4.46099 l 0.0036,0.055 c -0.158581,-0.008 -0.319168,-0.007 -0.481477,0.003 l -2.798187,0.17962 c -2.352571,0.15102 -4.124996,2.1666 -3.973977,4.51917 0.15102,2.35258 2.16661,4.12499 4.51918,3.97398 l 2.798189,-0.17963 c 0.162309,-0.0104 0.321587,-0.0308 0.477939,-0.0584 l 0.0036,0.055 c 2.140214,0.10048 3.897104,1.78689 4.037704,3.97716 0.1406,2.19027 -1.38624,4.08765 -3.49603,4.46101 l 0.004,0.0548 c -0.15857,-0.008 -0.319155,-0.007 -0.481456,0.003 l -12.180604,0.78192 -8.181568,0.5252 c -2.352572,0.15102 -4.124997,2.16661 -3.973978,4.51918 0.15102,2.35258 2.166597,4.12479 4.519168,3.97377 l 9.290984,-0.59641 11.071184,-0.71071 c 0.16231,-0.0104 0.3216,-0.0307 0.47796,-0.0582 l 0.004,0.0548 c 2.14022,0.10048 3.89712,1.7871 4.03772,3.97738 0.1406,2.19026 -1.38624,4.08764 -3.49603,4.461 l 0.004,0.0548 c -0.15858,-0.008 -0.31917,-0.007 -0.48146,0.003 l -10.239026,0.65727 c -2.352572,0.15102 -4.124997,2.16661 -3.973977,4.51918 0.151019,2.35257 2.166595,4.12478 4.519166,3.97376 l 10.239017,-0.65728 c 0.16232,-0.0104 0.3216,-0.0307 0.47796,-0.0581 l 10e-4,0.0273 15.33083,-0.98414 -1.61805,-25.20601 22.61765,-1.45191 1.61806,25.20602 15.33082,-0.98414 -3.81639,-59.45148 -15.33082,0.98413 1.45447,22.65769 -22.61766,1.4519 -1.45446,-22.65768 -15.330836,0.98413 0.0018,0.0276 c -0.158579,-0.008 -0.319173,-0.007 -0.481482,0.003 z m -6.584289,17.47876 c -2.352571,0.15103 -4.124785,2.16659 -3.973766,4.51917 0.151021,2.35257 2.166398,4.12501 4.51897,3.97398 l 8.941473,-0.57398 c 2.352572,-0.15102 4.124786,-2.16659 3.973766,-4.51916 -0.151019,-2.35257 -2.166397,-4.12501 -4.518969,-3.97398 l -0.804567,0.0516 z m -18.021901,35.26909 c -2.352575,0.15102 -4.124997,2.16661 -3.973978,4.51918 0.151021,2.35257 2.166594,4.12478 4.519168,3.97376 l 10.239021,-0.65727 c 2.352571,-0.15103 4.12501,-2.1664 3.973991,-4.51897 -0.15102,-2.35258 -2.16661,-4.125 -4.519181,-3.97397 z m 20.908874,-1.34221 c -2.352571,0.15102 -4.124997,2.1666 -3.973976,4.51918 0.151019,2.35257 2.166594,4.12478 4.519165,3.97376 l 3.317292,-0.21295 c 2.35257,-0.15101 4.12501,-2.16639 3.97399,-4.51896 -0.151019,-2.35258 -2.166611,-4.12499 -4.51918,-3.97398 z"
       style="font-style:normal;font-variant:normal;font-weight:bold;font-stretch:normal;font-size:149.226px;line-height:1.25;font-family:sans-serif;-inkscape-font-specification:'sans-serif, Bold';font-variant-ligatures:normal;font-variant-caps:normal;font-variant-numeric:normal;font-feature-settings:normal;text-align:start;letter-spacing:0px;word-spacing:0px;writing-mode:lr-tb;text-anchor:start;opacity:1;fill:#0000ff;fill-opacity:1;stroke:none;stroke-width:2.04298" />
  </g>
</svg>
